<svg height='100px' width='100px'  fill="#000000" xmlns="http://www.w3.org/2000/svg" xmlns:xlink="http://www.w3.org/1999/xlink" version="1.1" x="0px" y="0px" viewBox="0 0 100 100" style="enable-background:new 0 0 100 100;" xml:space="preserve"><g><path d="M64.31,86.754V100h-4.905l0.001-12.355c0-0.492-0.402-0.891-0.899-0.891c-0.496,0-0.898,0.398-0.898,0.891L57.605,100   h-13.45l-0.002-12.355c0-0.492-0.402-0.891-0.899-0.891s-0.899,0.398-0.899,0.891L42.357,100h-4.906V86.754   c0-6.611,6.011-8.902,13.429-8.902S64.31,80.143,64.31,86.754z M57.663,69.898c0-3.747-3.038-6.785-6.785-6.785   c-3.748,0-6.785,3.038-6.785,6.785s3.037,6.785,6.785,6.785C54.625,76.684,57.663,73.646,57.663,69.898z M20.268,77.852   c-7.418,0-13.429,2.291-13.429,8.902V100h4.906l-0.002-12.355c0-0.492,0.403-0.891,0.899-0.891s0.898,0.398,0.898,0.891L13.544,100   h13.449l0.003-12.355c0-0.492,0.402-0.891,0.898-0.891c0.497,0,0.899,0.398,0.899,0.891L28.792,100h4.906V86.754   C33.697,80.143,27.687,77.852,20.268,77.852z M27.051,69.898c0-3.747-3.038-6.785-6.785-6.785c-3.748,0-6.785,3.038-6.785,6.785   s3.037,6.785,6.785,6.785C24.013,76.684,27.051,73.646,27.051,69.898z M88.275,69.898c0-3.747-3.038-6.785-6.784-6.785   c-3.747,0-6.785,3.038-6.785,6.785s3.038,6.785,6.785,6.785C85.237,76.684,88.275,73.646,88.275,69.898z M0,0v2.061h100V0H0z    M81.492,77.852c-7.418,0-13.429,2.291-13.429,8.902V100h4.905l-0.001-12.355c0-0.492,0.402-0.891,0.899-0.891   c0.496,0,0.898,0.398,0.898,0.891L74.768,100h13.45l0.003-12.355c0-0.492,0.402-0.891,0.898-0.891s0.898,0.398,0.898,0.891   L90.016,100h4.906V86.754C94.922,80.143,88.912,77.852,81.492,77.852z M96.49,3.091V59.59H46.902l0.008-21.594   c0-0.527,0.116-1.176,0.649-1.174l2.381,7.311c0.23,0.716,0.75,1.302,1.434,1.614l11.128,5.092c1.465,0.597,2.9,0.089,3.555-1.132   c0.636-1.186,0.172-2.684-0.854-3.453L82.857,28.6c0.272-0.273,0.272-0.716,0-0.988c-0.273-0.273-0.715-0.273-0.988,0L63.891,45.59   l-9.217-4.219l-3.164-9.843c-0.2-0.622-0.674-1.173-1.187-1.495c-1.586-0.951-7.217-2.467-10.627-2.457   c-3.403,0.005-9.061,1.531-10.646,2.48c-0.479,0.324-0.944,0.879-1.134,1.472c0,0-3.66,11.55-3.653,11.85l0.261,10.887   c0.035,1.456,1.226,2.612,2.674,2.612c0.021,0,0.043-0.001,0.065-0.002c1.478-0.035,2.646-1.262,2.611-2.738l-0.25-10.435   l2.225-6.878c0.533,0,0.633,0.645,0.633,1.172L32.49,59.59H3.51V3.091H96.49z M46.973,18.961c0-4.02-3.258-7.277-7.278-7.277   c-4.019,0-7.277,3.258-7.277,7.277s3.258,7.277,7.277,7.277S46.973,22.98,46.973,18.961z"></path></g></svg>